<svg width="24" height="24" viewBox="0 0 24 24" fill="none" xmlns="http://www.w3.org/2000/svg">
<path d="M24 12C24 9.62662 23.2962 7.30655 21.9776 5.33316C20.6591 3.35977 18.7849 1.8217 16.5922 0.913446C14.3995 0.005194 11.9867 -0.232446 9.65892 0.230577C7.33114 0.693599 5.19295 1.83649 3.51472 3.51472C1.83649 5.19295 0.693599 7.33114 0.230577 9.65892C-0.232446 11.9867 0.00519403 14.3995 0.913446 16.5922C1.8217 18.7849 3.35977 20.6591 5.33316 21.9776C7.30655 23.2962 9.62662 24 12 24L12 20.4C10.3386 20.4 8.71458 19.9073 7.33321 18.9843C5.95184 18.0613 4.87519 16.7494 4.23941 15.2145C3.60364 13.6796 3.43729 11.9907 3.7614 10.3612C4.08552 8.7318 4.88554 7.23506 6.0603 6.0603C7.23506 4.88554 8.7318 4.08552 10.3612 3.7614C11.9907 3.43729 13.6796 3.60364 15.2145 4.23941C16.7494 4.87519 18.0613 5.95184 18.9843 7.33321C19.9073 8.71458 20.4 10.3386 20.4 12H24Z" fill="#D9D9D9"/>
</svg>